<?xml version="1.0" encoding="UTF-8"?>
<svg xmlns="http://www.w3.org/2000/svg" width="199" height="63" viewBox="0 0 199 63" fill="none">
  <g clip-path="url(#clip0)">
    <path d="M1.78565 25.9015C1.92397 26.0905 2.04972 26.2794 2.17547 26.4684C3.10602 27.9676 3.59644 29.6431 3.59644 31.4446V31.5454C3.59644 33.3469 3.10602 35.035 2.17547 36.5216C3.67189 34.7453 5.82221 33.5107 8.31206 33.2461C13.0277 32.7422 17.693 33.4351 22.0188 35.224C22.1822 34.002 22.2703 32.7548 22.2703 31.495C22.2703 30.2352 22.1822 29.0006 22.0188 27.766C23.1631 27.2873 24.2697 26.7456 25.3637 26.1157C26.4452 25.4858 27.4763 24.7929 28.4572 24.037C29.438 24.7929 30.4692 25.4858 31.5506 26.1157C32.632 26.7456 33.7512 27.2873 34.8955 27.766C34.7321 28.988 34.644 30.2352 34.644 31.495C34.644 32.7548 34.7321 33.9894 34.8955 35.224C39.2213 33.4351 43.8866 32.7422 48.6023 33.2461C51.0921 33.5107 53.2424 34.7453 54.7388 36.5216C53.8083 35.0224 53.3179 33.3343 53.3179 31.5454V31.4446C53.3179 29.6431 53.8083 27.9676 54.7388 26.4684C54.8646 26.2794 54.9903 26.0779 55.1287 25.9015C57.191 23.0543 57.4299 19.4387 56.0466 16.4656C56.0089 16.39 55.9712 16.3144 55.9335 16.2388C55.858 16.075 55.77 15.9113 55.6694 15.7601C55.5814 15.5963 55.4808 15.4451 55.3802 15.294C55.3299 15.2184 55.2921 15.1554 55.2418 15.0798C53.3556 12.3964 50.1113 10.7839 46.6154 11.1618C46.3891 11.187 46.1501 11.1996 45.9238 11.2122C44.1633 11.2752 42.4657 10.8595 40.919 9.96502L40.8309 9.91463C39.2842 9.02017 38.0644 7.74777 37.2471 6.18562C37.1339 5.98405 37.0333 5.78248 36.9453 5.56832C35.5243 2.35583 32.5063 0.340146 29.2494 0.050392C29.1614 0.037794 29.0859 0.037794 28.9979 0.037794C28.8344 0 28.6458 0 28.4697 0C28.2811 0 28.1051 0 27.929 0.012598C27.841 0.012598 27.7655 0.025196 27.6775 0.025196C24.408 0.31495 21.4026 2.33063 19.9816 5.54312C19.8936 5.75729 19.7804 5.95885 19.6798 6.16042C18.8625 7.72257 17.6427 8.98237 16.096 9.88943L16.0079 9.93982C14.4612 10.8343 12.751 11.25 10.9905 11.187C10.7642 11.1744 10.5378 11.1618 10.2989 11.1366C6.80306 10.7587 3.57129 12.3712 1.67247 15.0546C1.62217 15.1302 1.57187 15.1932 1.53415 15.2688C1.43355 15.42 1.33295 15.5711 1.24492 15.7349C1.1569 15.8987 1.06887 16.0499 0.98085 16.2136C0.943125 16.2892 0.9054 16.3648 0.867675 16.4404C-0.515571 19.4387 -0.276647 23.0543 1.78565 25.9015Z" fill="#80C342"></path>
    <path d="M0.867426 46.537C0.905151 46.6126 0.942876 46.6882 0.980601 46.7638C1.05605 46.9275 1.14408 47.0913 1.24468 47.2425C1.3327 47.4063 1.4333 47.5574 1.5339 47.7086C1.5842 47.7842 1.62192 47.8472 1.67222 47.9228C3.55847 50.6062 6.80281 52.2187 10.2987 51.8408C10.525 51.8156 10.7514 51.803 10.9903 51.7904C12.7508 51.7274 14.461 52.1431 16.0077 53.0376L16.0957 53.088C17.6424 53.9824 18.8622 55.2548 19.6796 56.817C19.7928 57.0185 19.8934 57.2201 19.9814 57.4343C21.4024 60.6468 24.4203 62.6624 27.6773 62.9522C27.7653 62.9648 27.8407 62.9648 27.9288 62.9648C28.1048 62.9774 28.2934 62.9774 28.4821 62.9774C28.6707 62.9774 28.8467 62.9774 29.0228 62.9648C29.1108 62.9648 29.1863 62.9522 29.2743 62.9522C32.5438 62.6624 35.5492 60.6468 36.9702 57.4343C37.0582 57.2201 37.1714 57.0185 37.272 56.817C38.1019 55.2548 39.3091 53.9824 40.8558 53.088L40.9439 53.0376C42.4906 52.1431 44.2008 51.7274 45.9613 51.7904C46.1876 51.803 46.414 51.8156 46.6529 51.8408C50.1487 52.2187 53.3805 50.6062 55.2793 47.9228C55.3296 47.8472 55.3799 47.7842 55.4176 47.7086C55.5182 47.5574 55.6188 47.4063 55.7069 47.2425C55.7949 47.0787 55.8829 46.9275 55.9709 46.7638C56.0087 46.6882 56.0464 46.6126 56.0841 46.537C57.4674 43.5513 57.2284 39.9357 55.1661 37.1011C55.0278 36.9121 54.9021 36.7232 54.7763 36.5342C53.2799 34.7579 51.1296 33.5233 48.6397 33.2587C43.9241 32.7548 39.2588 33.4477 34.933 35.2366C33.7887 35.7153 32.6821 36.257 31.5881 36.8869C30.5066 37.5168 29.4755 38.2097 28.4946 38.9656C27.5138 38.2097 26.4826 37.5168 25.4012 36.8869C24.3197 36.257 23.2006 35.7153 22.0562 35.2366C17.7305 33.4477 13.0651 32.7548 8.34953 33.2587C5.85969 33.5233 3.70937 34.7579 2.21295 36.5342C2.0872 36.7232 1.96145 36.9247 1.82312 37.1011C-0.276896 39.9357 -0.51582 43.5513 0.867426 46.537Z" fill="#21A092"></path>
    <path d="M1.78572 25.9015C1.92405 26.0905 2.0498 26.2794 2.17555 26.4684C3.67197 28.2447 5.82229 29.4793 8.31213 29.7439C13.0277 30.2478 17.6931 29.5549 22.0188 27.766C21.4152 23.1173 19.6673 18.7206 16.8757 14.8908C15.4044 12.8626 13.2667 11.6028 10.978 11.1996C10.7517 11.187 10.5253 11.1744 10.2864 11.1492C6.79056 10.7713 3.55879 12.3838 1.65997 15.0672C1.60967 15.1428 1.55937 15.2058 1.52165 15.2814C1.42105 15.4326 1.32045 15.5837 1.23242 15.7475C1.1444 15.9113 1.05638 16.0625 0.968351 16.2262C0.930626 16.3018 0.892901 16.3774 0.855176 16.453C-0.515495 19.4387 -0.276571 23.0544 1.78572 25.9015Z" fill="#3C9C37"></path>
    <path d="M48.6149 33.2461C43.8993 32.7422 39.234 33.4351 34.9082 35.224C35.5118 39.8727 37.2597 44.2694 40.0514 48.0992C41.5226 50.1275 43.6604 51.3873 45.949 51.7904C46.1754 51.803 46.4017 51.8156 46.6407 51.8408C50.1365 52.2187 53.3683 50.6062 55.2671 47.9228C55.3174 47.8472 55.3677 47.7842 55.4054 47.7087C55.506 47.5575 55.6066 47.4063 55.6946 47.2425C55.7827 47.0788 55.8707 46.9276 55.9587 46.7638C55.9964 46.6882 56.0342 46.6126 56.0719 46.537C57.4551 43.5513 57.2162 39.9357 55.1539 37.1011C55.0156 36.9122 54.8898 36.7232 54.7641 36.5342C53.2551 34.7453 51.1048 33.5107 48.6149 33.2461Z" fill="#216E70"></path>
    <path d="M40.0514 14.8908C37.2597 18.7332 35.5118 23.1299 34.9082 27.766C39.234 29.5549 43.8993 30.2478 48.6149 29.7439C51.1047 29.4793 53.2551 28.2447 54.7515 26.4684C54.8772 26.2794 55.003 26.0778 55.1413 25.9015C57.2036 23.0543 57.4425 19.4387 56.0593 16.4656C56.0216 16.39 55.9838 16.3144 55.9461 16.2388C55.8707 16.075 55.7826 15.9113 55.682 15.7601C55.594 15.5963 55.4934 15.4451 55.3928 15.294C55.3425 15.2184 55.3048 15.1554 55.2545 15.0798C53.3682 12.3964 50.1239 10.7839 46.6281 11.1618C46.4017 11.187 46.1628 11.1996 45.9364 11.2122C43.6604 11.6027 41.5226 12.8625 40.0514 14.8908Z" fill="#3C9C37"></path>
    <path d="M19.9063 13.1397C21.8303 17.4734 24.7603 21.1898 28.4699 24.037C32.1795 21.1898 35.1095 17.4734 37.0334 13.1397C38.052 10.8469 38.0646 8.36507 37.2724 6.17302C37.1592 5.97145 37.0586 5.76988 36.9706 5.55572C35.5496 2.34323 32.5316 0.327548 29.2747 0.037794C29.1867 0.025196 29.1112 0.025196 29.0232 0.025196C28.8346 0 28.6459 0 28.4699 0C28.2813 0 28.1052 0 27.9292 0.012598C27.8411 0.012598 27.7657 0.025196 27.6777 0.025196C24.4082 0.31495 21.4027 2.33063 19.9818 5.54312C19.8938 5.75729 19.7806 5.95885 19.68 6.16042C18.8752 8.36507 18.8878 10.8469 19.9063 13.1397Z" fill="#3C9C37"></path>
    <path d="M16.8756 48.0992C19.6672 44.2568 21.4152 39.8601 22.0188 35.224C17.693 33.4351 13.0277 32.7422 8.31205 33.2461C5.82221 33.5107 3.67189 34.7453 2.17547 36.5216C2.04972 36.7106 1.92397 36.9122 1.78565 37.0885C-0.276647 39.9357 -0.515571 43.5513 0.867675 46.537C0.9054 46.6126 0.943125 46.6882 0.98085 46.7638C1.0563 46.9276 1.14432 47.0914 1.24492 47.2425C1.33295 47.4063 1.43355 47.5575 1.53415 47.7087C1.58445 47.7842 1.62217 47.8472 1.67247 47.9228C3.55872 50.6062 6.80306 52.2187 10.2989 51.8408C10.5252 51.8156 10.7516 51.803 10.9905 51.7904C13.2666 51.3873 15.4043 50.1275 16.8756 48.0992Z" fill="#216E70"></path>
    <path d="M71.1743 24.1H74.7708V26.1283H75.1732C75.9276 24.9062 77.1977 23.6968 79.7504 23.6968C83.3469 23.6968 86.3523 26.8841 86.3523 31.2934C86.3523 35.7027 83.3343 38.89 79.7504 38.89C77.1977 38.89 75.9276 37.668 75.1732 36.4586H74.8211V44.2946H71.1743V24.1ZM82.693 31.306C82.693 28.5219 80.9576 26.9597 78.757 26.9597C76.4935 26.9597 74.8211 28.5849 74.8211 31.306C74.8211 34.0272 76.5061 35.6523 78.757 35.6523C80.9576 35.6523 82.693 34.0902 82.693 31.306Z" fill="#216E70"></path>
    <path d="M92.3756 18.1915V26.4306H92.7277C93.3062 25.0952 94.6391 23.8732 97.2799 23.8732C100.461 23.8732 102.876 26.166 102.876 29.9076V38.4994H99.229V30.2604C99.229 28.2573 98.0721 27.0731 95.9846 27.0731C93.6331 27.0731 92.3882 28.5218 92.3882 31.0792V38.512H88.7415V18.1915H92.3756Z" fill="#216E70"></path>
    <path d="M119.538 24.1L111.666 44.2946H107.73L109.754 39.4191L103.794 24.1H107.73L111.49 34.4303H111.842L115.602 24.1H119.538V24.1Z" fill="#216E70"></path>
    <path d="M126.026 23.6968C129.384 23.6968 131.76 25.2338 133.408 26.9723L130.943 29.1518C129.296 27.2369 127.636 26.6574 126.19 26.6574C124.744 26.6574 124.077 27.2369 124.077 28.018C124.077 28.799 124.807 29.2022 126.165 29.4415L127.9 29.7313C131.031 30.2478 133.496 31.3312 133.496 34.1658C133.496 37.0003 130.943 38.89 127.41 38.89C123.7 38.89 120.984 37.0003 119.538 34.7075L122.405 32.9438C123.712 35.2618 125.624 35.9295 127.359 35.9295C129.044 35.9295 129.962 35.2618 129.962 34.3925C129.962 33.5233 129.208 33.1201 127.762 32.8808L126.026 32.591C122.669 32.0367 120.556 30.7895 120.556 28.1187C120.556 25.448 122.719 23.6968 126.026 23.6968Z" fill="#216E70"></path>
    <path d="M137.759 17.4356C139.205 17.4356 140.337 18.456 140.337 19.93C140.337 21.404 139.205 22.4244 137.759 22.4244C136.313 22.4244 135.181 21.404 135.181 19.93C135.181 18.456 136.313 17.4356 137.759 17.4356ZM139.582 38.4995H135.935V24.1H139.582V38.4995Z" fill="#216E70"></path>
    <path d="M149.428 23.6968C153.427 23.6968 155.917 25.9267 156.671 29.2148L153.075 30.147C152.811 28.4085 151.679 26.9597 149.479 26.9597C147.278 26.9597 145.593 28.6982 145.593 31.306C145.593 33.9138 147.127 35.6523 149.479 35.6523C151.679 35.6523 152.698 34.3799 153.075 32.4902L156.671 33.3847C155.98 36.6602 153.452 38.9026 149.428 38.9026C145.253 38.9026 141.959 35.7657 141.959 31.306C141.959 26.8463 145.253 23.6968 149.428 23.6968Z" fill="#216E70"></path>
    <path d="M165.449 23.6968C169.272 23.6968 171.963 25.9267 171.963 29.4163V38.4995H168.366V36.4712H167.964C167.499 37.4287 166.493 38.9026 163.449 38.9026C160.205 38.9026 158.067 37.1641 158.067 34.4051C158.067 32.1123 160.067 30.5124 162.821 30.2226L168.329 29.6179V29.1518C168.329 27.8164 167.348 26.6574 165.311 26.6574C163.286 26.6574 162.129 27.8164 161.375 29.4415L158.419 27.64C159.539 25.9897 161.626 23.6968 165.449 23.6968ZM164.342 35.8917C166.895 35.8917 168.316 34.3799 168.316 32.4147V32.0619L163.915 32.5784C162.557 32.7548 161.89 33.3595 161.89 34.2036C161.878 35.1862 162.72 35.8917 164.342 35.8917Z" fill="#216E70"></path>
  </g>
  <defs>
    <clipPath id="clip0">
      <rect width="199" height="63" fill="white"></rect>
    </clipPath>
  </defs>
</svg>
